<svg xmlns="http://www.w3.org/2000/svg" width="45" height="45">
    <g style="fill: white;
              stroke: black;
              stroke-width: 1.5;">
        <path d="m 9.2106457,29.901528 c 8.5000003,-1.5 21.0000003,-1.5 27.0000003,0 l 2,-12 -7,11 1.286206,-13.499107 -6.786206,12.999107 -3,-15 -3,15 -6.138199,-13.511639 0.638199,14.011639 -7.0000003,-11 z"/>
        <path d="m 9.2106457,29.901528 c 0,2 1.5000003,2 2.5000003,4 1,1.5 1,1 0.5,3.5 -1.5,1 -1.5,2.5 -1.5,2.5 -1.5000003,1.5 0.5,2.5 0.5,2.5 6.5,1 16.5,1 23,0 0,0 1.5,-1 0,-2.5 0,0 0.5,-1.5 -1,-2.5 -0.5,-2.5 -0.5,-2 0.5,-3.5 1,-2 2.5,-2 2.5,-4 -8.5,-1.5 -18.5,-1.5 -27.0000003,0 z"/>
        <path d="m 11.710646,33.901528 c 3.5,-1 18.5,-1 22,0"/>
        <path d="m 12.210646,37.401528 c 6,-1 15,-1 21,0"/>
        <path style="stroke-linecap: butt;"
              d="m 21.143788,10.00765 c -0.4524,-0.4949742 0.157536,-1.2850857 -0.294864,-1.7800604 -0.646286,-0.7071068 -2.15033,0.6258816 -2.447092,-0.3199391 -0.229844,-0.732545 -0.262779,-1.6776393 0,-2.4 0.337991,-0.9291119 1.830692,0.077107 2.741956,0 1.514032,-0.1281107 3.110234,-1.4322723 4.501487,-0.7663756 1.537207,0.7357553 3.15453,3.7366414 3.15453,3.7366414 0,0 -2.848194,-1.0611802 -4.039378,-0.5015988 -0.628617,0.2953048 -0.296986,1.6304144 -0.874683,2.0313325 -0.771814,0.535635 -2.095671,0.707107 -2.741956,0 z"/>
        <g transform="rotate(-25.9,13.099738, 10.217528)">
            <g transform="translate(-0.64110297, 1.802545)">
                <path style="stroke-linecap: butt;"
                      d="M 5,10 2.5,6 4,1 h 2 l 1.5,5 z"/>
                <path style="fill: black;"
                      d="M 3.5,7.5 3.9545591,15.066596 5.7087883,15.007489 6.5,7.5"/>
            </g>
            <g transform="rotate(49,1.6521224, 50.709565)">
                <path style="stroke-linecap: butt;"
                      d="M 5,10 2.5,6 4,1 h 2 l 1.5,5 z"/>
                <path style="fill: black;"
                      d="M 3.5,7.5 3.9545591,15.066596 5.7087883,15.007489 6.5,7.5"/>
            </g>
            <path style="stroke-linecap:round;"
                  d="m 40.817865,21.08221 -2.154352,1.870747"/>
            <path style="stroke-linecap: butt;"
                  d="m 10.241502,17.066765 1.876806,-6.588577 C 9.671448,9.8597358 9.971041,4.8118671 12.525982,5.4141063 c 0.794584,0.3134224 0.117627,1.611517 0.461823,1.9886919 0.307859,0.3373551 0.947939,0.4891595 1.387357,0.364671 0.491284,-0.1391849 0.678244,-1.7073678 1.169327,-1.5674792 2.337906,0.7288317 0.141574,5.416705 -2.108468,4.653559 l -1.876804,6.588577 z"/>
            <path style="fill:#000000;fill-opacity:1;stroke:none;stroke-width:1.28623px;stroke-linecap:butt;stroke-linejoin:miter;stroke-opacity:1"
                  d="m 20.340132,14.224496 -2.481907,5.111288 2.424308,1.17718 2.481908,-5.111287 z"/>
        </g>
        <g transform="matrix(0.65038679,0.05690147,-0.05690147,0.65038679,15.094376,23.491321)">
            <g transform="rotate(10,64.95597,-16.50193)">
                <path style="fill:#ffffff;stroke:#000000;stroke-width:2.29754;stroke-linecap:butt;stroke-linejoin:miter;stroke-miterlimit:4;stroke-dasharray:none;stroke-opacity:1;fill-opacity:1"
                      d="m 28,-27 h -3 l -2,6 1,2 c -1.10456,1.887081 -1.291189,3.868002 0,6 h 5 c 1.063727,-1.977203 1.470298,-3.96849 0,-6 l 1,-2 z"/>
                <path style="fill:#ffffff;stroke:#000000;stroke-width:2.29754;stroke-linecap:round;stroke-linejoin:miter;stroke-miterlimit:4;stroke-dasharray:none;stroke-opacity:1;fill-opacity:1"
                      d="M 26.5057,-26.5 26.5,-22.202062"/>
            </g>
            <g style="stroke-width:2.29754;
                      stroke-linecap:round;">
                <path d="m 23.798627,-19.824911 c -3.08571,3.078253 -2.817708,9.464273 -2.167585,12.2929863"/>
                <path d="M 28.873205,-18.930126 C 30.72,-14.98214 28.284013,-9.0729055 26.70562,-6.6371395"/>
            </g>
        </g>
        <path style="stroke:none;"
              d="m 32.951855,18.862948 c 0.05528,-0.407836 0.295725,-3.036659 0.295725,-3.233221 0,-0.191805 -0.01611,-0.201001 -0.71226,-0.406637 -0.391743,-0.115718 -0.718648,-0.203254 -0.726455,-0.194525 -0.0078,0.0087 -0.336308,0.631167 -0.730002,1.383198 -0.393694,0.75203 -0.731276,1.382335 -0.750182,1.400677 -0.06705,0.06505 0.05343,-1.142479 0.178218,-1.786221 0.250812,-1.293846 0.750221,-2.449197 1.325294,-3.065981 l 0.314855,-0.337692 1.033833,0.282566 1.033833,0.282565 0.09518,0.26139 c 0.06253,0.17172 0.09428,0.524519 0.09255,1.028427 -0.0041,1.202948 -0.273108,2.211871 -0.99136,3.718465 -0.231727,0.486069 -0.436463,0.883761 -0.454967,0.883761 -0.0185,0 -0.02042,-0.09755 -0.0043,-0.216772 z"/>
    </g>
</svg>
