<svg xmlns="http://www.w3.org/2000/svg" width="45" height="45">
    <g style="fill: white;
              stroke: black;
              stroke-width: 1.5;
              stroke-linecap: round;">
        <path d="m 44.001996,22.500001 v 9.077761 c 0,3.868125 -9.626772,7.003858 -21.501996,7.003858 -11.875223,0 -21.50199449,-3.135733 -21.50199551,-7.003858 l 1.2e-6,-9.077761"/>
        <path d="m 0.99800569,22.500001 c 1.02e-6,3.868124 9.62677231,7.003857 21.50199531,7.003857 11.875223,0 21.501994,-3.135733 21.501995,-7.003857"/>
        <path d="m 44.001996,12.392951 v 9.077761 c 0,3.868125 -9.626772,7.003858 -21.501996,7.003858 -11.875223,0 -21.50199393,-3.135733 -21.50199503,-7.003858 l 1.2e-6,-9.077761 m 0,0 c -6e-7,-3.8681234 9.62676983,-7.0038575 21.50199483,-7.0038575 11.875224,0 21.501996,3.1357341 21.501995,7.0038575"/>
        <path d="m 40.33338,12.392951 c -2e-6,2.661001 -7.984278,4.818168 -17.833381,4.818168 -9.849101,0 -17.8333764,-2.157167 -17.8333774,-4.818168 m 0,0 c -1e-6,-2.6610006 7.9842724,-4.8181685 17.8333774,-4.8181685 9.849103,0 17.833381,2.1571679 17.833381,4.8181685"/>
        <path d="m 0.99800617,12.392951 c 1.1e-6,3.868124 9.62677183,7.003857 21.50199483,7.003857 11.875223,0 21.501994,-3.135733 21.501995,-7.003857"
              style="fill: none"/>
    </g>
</svg>
