<svg xmlns="http://www.w3.org/2000/svg" width="45" height="45">
    <g style="fill: white;
              stroke: black;
              stroke-width: 1.5;
              stroke-linecap: round;">
        <path d="m 44.001996,22.500001 v 9.077761 c 0,3.868125 -9.626772,7.003858 -21.501996,7.003858 -11.875223,0 -21.50199449,-3.135733 -21.50199551,-7.003858 l 1.2e-6,-9.077761 m 0,0 c -6.8e-7,-3.868124 9.62677031,-7.003858 21.50199531,-7.003858 11.875224,0 21.501996,3.135734 21.501995,7.003858"/>
        <path d="m 40.33338,22.500001 c -2e-6,2.661001 -7.984278,4.818168 -17.833381,4.818168 -9.849101,0 -17.8333769,-2.157167 -17.8333778,-4.818168 m 0,0 c -9e-7,-2.661001 7.9842728,-4.818169 17.8333778,-4.818169 9.849103,0 17.833381,2.157168 17.833381,4.818169"/>
        <path d="m 0.99800569,22.500001 c 1.02e-6,3.868124 9.62677231,7.003857 21.50199531,7.003857 11.875223,0 21.501994,-3.135733 21.501995,-7.003857"
              style="fill: none"/>
    </g>
</svg>
